PathFileType	4	(x/y/z)	TRC_MarkerData\Passive\Passive_Pref0007.trc
DataRate	CameraRate	NumFrames	NumMarkers	Units	OrigDataRate	OrigDataStartFrame	OrigNumFrames
240	240	11	50	mm	240	65	256
Frame#	Time	R_AC			L_AC			HEAD			STERN			L_IC			R_IC			L_ASIS			R_ASIS			L_GT			R_GT			L_PSIS			R_PSIS			SACRAL			L_LAT_KNEE			L_MED_KNEE			R_LAT_KNEE			R_MED_KNEE			L_LAT_ANK			L_MED_ANK			R_LAT_ANK			R_MED_ANK			L_THIGH_PROX_POST			L_THIGH_PROX_ANT			L_THIGH_DIST_ANT			L_THIGH_DIST_POST			R_THIGH_PROX_POST			R_THIGH_PROX_ANT			R_THIGH_DIST_ANT			R_THIGH_DIST_POST			L_SHANK_PROX_POST			L_SHANK_PROX_ANT			L_SHANK_DIST_ANT			L_SHANK_DIST_POST			R_SHANK_PROX_POST			R_SHANK_PROX_ANT			R_SHANK_DIST_ANT			R_SHANK_DIST_POST			L_HEEL_LAT			L_HEEL_SUP			L_HEEL_MED			R_HEEL_LAT			R_HEEL_SUP			R_HEEL_MED			L_1ST_MET			L_5TH_MET			L_TOE			R_1ST_MET			R_5TH_MET			R_TOE			C7			
		X1	Y1	Z1	X2	Y2	Z2	X3	Y3	Z3	X4	Y4	Z4	X5	Y5	Z5	X6	Y6	Z6	X7	Y7	Z7	X8	Y8	Z8	X9	Y9	Z9	X10	Y10	Z10	X11	Y11	Z11	X12	Y12	Z12	X13	Y13	Z13	X14	Y14	Z14	X15	Y15	Z15	X16	Y16	Z16	X17	Y17	Z17	X18	Y18	Z18	X19	Y19	Z19	X20	Y20	Z20	X21	Y21	Z21	X22	Y22	Z22	X23	Y23	Z23	X24	Y24	Z24	X25	Y25	Z25	X26	Y26	Z26	X27	Y27	Z27	X28	Y28	Z28	X29	Y29	Z29	X30	Y30	Z30	X31	Y31	Z31	X32	Y32	Z32	X33	Y33	Z33	X34	Y34	Z34	X35	Y35	Z35	X36	Y36	Z36	X37	Y37	Z37	X38	Y38	Z38	X39	Y39	Z39	X40	Y40	Z40	X41	Y41	Z41	X42	Y42	Z42	X43	Y43	Z43	X44	Y44	Z44	X45	Y45	Z45	X46	Y46	Z46	X47	Y47	Z47	X48	Y48	Z48	X49	Y49	Z49	X50	Y50	Z50	

65	0.26771	-441.89	1507.2	405.41	-414.36	1510.7	52.766	-417.08	1794.4	221.55	-390.45	1451.9	233.94	-454.65	1085.3	74.998	-472.64	1101.6	401.14	-396.45	1008.4	105.61	-400.15	1009.8	379.1	-470.74	921.85	47.238	-478.7	936.77	434.14	-582.97	1067.8	184.02	-586.05	1074.8	275.93	-598.31	1039	229.9	-402.29	522.22	111.65	-438.18	530.3	243.76	-420.82	529.3	405.5	-402.78	534.79	271.11	-495.26	114.16	158.13	-495.27	119.27	231.76	-735.19	257.3	380.96	-701.68	254	294.43	-456.78	748.17	77.938	-394.53	755.86	95.99	-381.48	684.28	111.75	-445.44	674.7	94.369	-481.99	718.39	409.9	-418	737.05	424.47	-403.37	663.28	419.05	-466.17	645.57	401.28	-432.34	440.54	118.66	-388.99	446.36	145.54	-409.28	390.95	153.79	-466.7	388.91	142.6	-568.84	462.26	396.34	-520.73	414.87	410.79	-576.87	363.39	400.53	-623.42	413.38	384.08	-586.84	51.942	166.78	-593.06	81.663	198.05	-585.56	52.703	233.35	-826.45	270.56	342.07	-798.54	285.94	310.99	-807.92	259.15	277.75	-377.39	53.339	250.41	-408.01	37.184	144.65	-316.91	56.38	217.83	-687.31	97.375	313.97	-729.13	121.03	412.77	-661.48	61.39	372.09	-504.3	1569.3	221.88
66	0.2719	-437.04	1507.9	405.53	-407.84	1511.9	52.989	-411.24	1795.3	221.8	-384.83	1452.8	234.23	-448.87	1086.1	74.889	-467.4	1102.8	400.88	-390.83	1008.9	105.65	-394.79	1011.2	379.15	-465.83	922.41	47.259	-472.86	938.2	434.19	-577.36	1068.7	183.61	-580.63	1075.8	275.52	-592.84	1040.1	229.53	-400.45	522.24	111.59	-436.15	530.46	243.68	-409.82	531.25	405.89	-391.77	536.93	271.47	-494.87	114.52	158.12	-494.9	119.64	231.69	-721.07	255.68	381.43	-687.33	252.47	294.96	-453.1	748.73	77.916	-390.75	755.96	95.977	-378.26	684.26	111.71	-442.39	675.13	94.364	-473.43	719.62	410.22	-409.68	739.06	424.88	-394.16	665.46	419.53	-456.73	646.99	401.64	-430.79	440.68	118.61	-387.43	446.35	145.48	-407.91	391	153.74	-465.33	389.16	142.55	-557.22	462.53	396.91	-508.45	415.66	411.26	-563.98	363.52	401.03	-611.15	412.94	384.59	-586.67	52.569	166.78	-592.81	82.343	198.03	-585.41	53.369	233.32	-812.75	266.3	342.53	-785.46	282.03	311.28	-793.99	254.64	278.31	-377.28	53.327	250.4	-407.93	37.192	144.62	-316.79	56.218	217.81	-669.08	96.528	316.06	-711.44	120.11	414.63	-642.26	61.878	374.53	-498.52	1570.3	221.72
67	0.27608	-432.18	1508.7	405.64	-401.33	1513	53.222	-405.41	1796.3	222.05	-379.19	1453.8	234.52	-443.13	1086.8	74.791	-462.14	1104	400.63	-385.23	1009.5	105.68	-389.41	1012.5	379.19	-460.95	922.97	47.286	-467	939.64	434.26	-571.75	1069.6	183.23	-575.22	1076.9	275.14	-587.38	1041.1	229.19	-398.66	522.28	111.54	-434.17	530.63	243.61	-398.93	533.22	406.22	-380.88	539.12	271.78	-494.49	114.89	158.12	-494.54	120.02	231.61	-706.79	253.83	381.89	-672.85	250.77	295.48	-449.47	749.3	77.913	-387.03	756.05	95.959	-375.11	684.24	111.68	-439.4	675.56	94.377	-464.93	720.89	410.52	-401.44	741.09	425.28	-385.03	667.66	419.98	-447.36	648.45	401.99	-429.29	440.84	118.57	-385.91	446.35	145.45	-406.57	391.06	153.71	-463.99	389.43	142.52	-545.67	462.7	397.44	-496.19	416.41	411.7	-551.06	363.57	401.51	-598.9	412.36	385.08	-586.49	53.211	166.78	-592.57	83.038	198.01	-585.27	54.045	233.3	-798.84	261.76	343.01	-772.21	277.86	311.6	-779.86	249.87	278.92	-377.17	53.317	250.38	-407.84	37.207	144.6	-316.67	56.059	217.8	-650.64	95.61	318.11	-693.56	119.08	416.46	-622.86	62.323	376.9	-492.74	1571.3	221.56
68	0.28026	-427.3	1509.4	405.75	-394.82	1514.1	53.467	-399.59	1797.2	222.3	-373.55	1454.7	234.81	-437.41	1087.6	74.703	-456.86	1105.2	400.38	-379.65	1010.1	105.71	-384.01	1013.9	379.2	-456.09	923.53	47.322	-461.1	941.08	434.32	-566.14	1070.5	182.88	-569.81	1078	274.79	-581.91	1042.2	228.89	-396.93	522.34	111.51	-432.26	530.8	243.56	-388.16	535.23	406.51	-370.14	541.35	272.06	-494.12	115.26	158.12	-494.2	120.41	231.52	-692.36	251.77	382.36	-658.23	248.89	296	-445.9	749.87	77.928	-383.36	756.14	95.937	-372.02	684.23	111.66	-436.46	676.01	94.407	-456.5	722.18	410.83	-393.26	743.13	425.66	-375.99	669.88	420.41	-438.08	649.95	402.32	-427.83	441.01	118.54	-384.44	446.37	145.42	-405.27	391.15	153.68	-462.7	389.71	142.51	-534.18	462.79	397.93	-483.97	417.12	412.11	-538.13	363.55	401.98	-586.66	411.67	385.54	-586.31	53.863	166.79	-592.33	83.747	197.99	-585.11	54.727	233.27	-784.73	256.95	343.53	-758.78	273.43	311.95	-765.53	244.86	279.56	-377.06	53.311	250.36	-407.75	37.227	144.57	-316.55	55.904	217.78	-632	94.631	320.11	-675.5	117.92	418.24	-603.27	62.733	379.2	-486.94	1572.3	221.4
69	0.28444	-422.41	1510.1	405.86	-388.31	1515.3	53.72	-393.78	1798.1	222.57	-367.89	1455.7	235.09	-431.73	1088.4	74.623	-451.56	1106.4	400.15	-374.1	1010.6	105.74	-378.6	1015.2	379.2	-451.25	924.09	47.366	-455.18	942.51	434.4	-560.53	1071.4	182.56	-564.42	1079.1	274.48	-576.44	1043.2	228.63	-395.25	522.41	111.5	-430.4	530.98	243.53	-377.51	537.26	406.73	-359.54	543.61	272.3	-493.75	115.65	158.12	-493.87	120.79	231.42	-677.77	249.49	382.83	-643.48	246.84	296.51	-442.36	750.44	77.963	-379.75	756.23	95.912	-368.98	684.21	111.65	-433.55	676.46	94.454	-448.13	723.49	411.12	-385.17	745.18	426.02	-367.04	672.12	420.81	-428.88	651.48	402.64	-426.41	441.19	118.53	-383	446.41	145.42	-403.99	391.25	153.68	-461.43	390	142.51	-522.74	462.79	398.4	-471.79	417.78	412.48	-525.18	363.45	402.42	-574.44	410.85	385.97	-586.12	54.524	166.79	-592.1	84.467	197.97	-584.94	55.413	233.25	-770.4	251.87	344.07	-745.17	268.77	312.34	-750.97	239.62	280.25	-376.95	53.307	250.34	-407.67	37.253	144.55	-316.42	55.752	217.77	-613.18	93.603	322.07	-657.27	116.65	419.98	-583.51	63.114	381.43	-481.14	1573.2	221.25
70	0.28863	-417.5	1510.9	405.96	-381.8	1516.4	53.982	-387.98	1799	222.83	-362.21	1456.7	235.36	-426.07	1089.1	74.551	-446.25	1107.6	399.93	-368.56	1011.2	105.76	-373.16	1016.5	379.18	-446.42	924.64	47.418	-449.22	943.94	434.48	-554.92	1072.3	182.28	-559.03	1080.2	274.19	-570.97	1044.3	228.4	-393.61	522.5	111.51	-428.61	531.17	243.53	-367	539.3	406.91	-349.1	545.89	272.5	-493.38	116.04	158.13	-493.56	121.18	231.31	-663.02	247	383.3	-628.6	244.62	297.03	-438.87	751.02	78.02	-376.18	756.31	95.887	-365.99	684.2	111.65	-430.67	676.93	94.518	-439.83	724.83	411.41	-377.15	747.22	426.37	-358.18	674.37	421.18	-419.77	653.04	402.93	-425.02	441.39	118.54	-381.6	446.46	145.43	-402.75	391.37	153.68	-460.2	390.3	142.52	-511.35	462.69	398.82	-459.64	418.39	412.83	-512.21	363.28	402.85	-562.23	409.9	386.38	-585.94	55.193	166.8	-591.87	85.197	197.95	-584.75	56.099	233.23	-755.85	246.56	344.65	-731.36	263.87	312.75	-736.2	234.18	280.96	-376.84	53.306	250.32	-407.58	37.284	144.53	-316.3	55.604	217.75	-594.19	92.535	323.98	-638.89	115.27	421.66	-563.61	63.471	383.58	-475.34	1574.2	221.11
71	0.29281	-412.57	1511.6	406.06	-375.3	1517.5	54.251	-382.18	1799.9	223.1	-356.53	1457.6	235.63	-420.43	1089.8	74.486	-440.92	1108.8	399.72	-363.04	1011.7	105.78	-367.71	1017.8	379.15	-441.6	925.18	47.479	-443.22	945.36	434.57	-549.31	1073.2	182.02	-553.65	1081.2	273.94	-565.49	1045.3	228.2	-392.01	522.6	111.54	-426.89	531.36	243.55	-356.63	541.34	407.03	-338.82	548.19	272.67	-493.02	116.44	158.14	-493.26	121.56	231.19	-648.12	244.31	383.79	-613.59	242.23	297.55	-435.42	751.58	78.101	-372.66	756.38	95.863	-363.06	684.19	111.66	-427.82	677.4	94.596	-431.6	726.17	411.68	-369.21	749.27	426.69	-349.41	676.61	421.52	-410.75	654.61	403.21	-423.67	441.59	118.57	-380.24	446.52	145.46	-401.53	391.5	153.71	-458.99	390.6	142.55	-500.02	462.48	399.21	-447.54	418.96	413.14	-499.24	363.02	403.26	-550.04	408.83	386.77	-585.75	55.868	166.81	-591.65	85.934	197.93	-584.55	56.784	233.21	-741.06	241.02	345.26	-717.36	258.77	313.19	-721.19	228.55	281.7	-376.72	53.308	250.3	-407.49	37.319	144.51	-316.18	55.458	217.73	-575.02	91.438	325.83	-620.35	113.8	423.3	-543.57	63.812	385.65	-469.52	1575.1	220.97
72	0.29699	-407.61	1512.3	406.16	-368.81	1518.7	54.526	-376.39	1800.7	223.37	-350.83	1458.6	235.88	-414.81	1090.6	74.427	-435.55	1110	399.52	-357.55	1012.3	105.79	-362.23	1019.1	379.11	-436.8	925.7	47.55	-437.2	946.76	434.67	-543.71	1074	181.8	-548.28	1082.3	273.71	-560	1046.3	228.03	-390.46	522.71	111.6	-425.23	531.55	243.6	-346.39	543.39	407.11	-328.7	550.5	272.81	-492.66	116.85	158.15	-492.97	121.94	231.06	-633.07	241.43	384.28	-598.44	239.7	298.08	-432.01	752.15	78.205	-369.18	756.45	95.845	-360.17	684.17	111.69	-424.99	677.88	94.688	-423.43	727.52	411.94	-361.34	751.3	427	-340.73	678.84	421.83	-401.83	656.19	403.46	-422.35	441.81	118.63	-378.91	446.6	145.51	-400.34	391.65	153.76	-457.82	390.91	142.6	-488.74	462.17	399.56	-435.49	419.47	413.42	-486.25	362.69	403.65	-537.86	407.63	387.14	-585.56	56.546	166.83	-591.44	86.675	197.91	-584.33	57.465	233.2	-726.04	235.26	345.9	-703.14	253.46	313.67	-705.94	222.75	282.47	-376.61	53.313	250.27	-407.4	37.36	144.49	-316.05	55.315	217.71	-555.7	90.322	327.61	-601.66	112.24	424.88	-523.41	64.141	387.63	-463.7	1576	220.84
73	0.30118	-402.64	1513.1	406.25	-362.33	1519.8	54.806	-370.6	1801.6	223.65	-345.12	1459.6	236.13	-409.21	1091.3	74.374	-430.16	1111.1	399.32	-352.07	1012.8	105.8	-356.73	1020.3	379.05	-431.99	926.21	47.632	-431.15	948.15	434.77	-538.11	1074.9	181.61	-542.91	1083.3	273.52	-554.51	1047.3	227.89	-388.94	522.83	111.68	-423.64	531.75	243.69	-336.31	545.42	407.13	-318.76	552.8	272.92	-492.31	117.26	158.17	-492.69	122.32	230.91	-617.86	238.37	384.78	-583.16	237.02	298.62	-428.63	752.7	78.334	-365.74	756.5	95.835	-357.32	684.14	111.73	-422.17	678.37	94.795	-415.33	728.87	412.18	-353.55	753.31	427.29	-332.15	681.06	422.1	-393	657.78	403.68	-421.06	442.03	118.7	-377.61	446.69	145.59	-399.18	391.81	153.82	-456.67	391.23	142.68	-477.51	461.74	399.87	-423.48	419.92	413.66	-473.25	362.29	404.02	-525.7	406.31	387.49	-585.36	57.228	166.84	-591.24	87.419	197.89	-584.09	58.142	233.2	-710.77	229.31	346.57	-688.71	247.97	314.17	-690.45	216.79	283.27	-376.5	53.321	250.24	-407.32	37.404	144.47	-315.93	55.176	217.7	-536.23	89.196	329.34	-582.82	110.6	426.4	-503.15	64.467	389.52	-457.87	1576.9	220.72
74	0.30536	-397.64	1513.8	406.34	-355.85	1520.9	55.089	-364.81	1802.4	223.93	-339.41	1460.5	236.36	-403.62	1092	74.326	-424.73	1112.2	399.13	-346.61	1013.3	105.81	-351.2	1021.5	378.99	-427.19	926.7	47.725	-425.06	949.53	434.88	-532.52	1075.7	181.45	-537.56	1084.4	273.35	-549.01	1048.3	227.79	-387.46	522.97	111.79	-422.1	531.95	243.8	-326.37	547.44	407.1	-309	555.08	273	-491.96	117.67	158.2	-492.41	122.69	230.76	-602.5	235.14	385.29	-567.74	234.2	299.16	-425.27	753.24	78.488	-362.32	756.55	95.838	-354.5	684.11	111.8	-419.37	678.87	94.917	-407.29	730.22	412.4	-345.84	755.3	427.56	-323.66	683.25	422.33	-384.27	659.37	403.88	-419.8	442.26	118.8	-376.34	446.79	145.69	-398.03	391.98	153.9	-455.54	391.55	142.77	-466.32	461.19	400.14	-411.53	420.31	413.88	-460.25	361.8	404.37	-513.55	404.86	387.83	-585.17	57.911	166.86	-591.04	88.164	197.88	-583.84	58.812	233.21	-695.24	223.17	347.27	-674.05	242.3	314.7	-674.71	210.71	284.08	-376.38	53.332	250.21	-407.23	37.452	144.45	-315.81	55.039	217.68	-516.63	88.071	330.99	-563.84	108.9	427.87	-482.79	64.796	391.32	-452.02	1577.7	220.6
75	0.30954	-392.61	1514.5	406.43	-349.38	1521.9	55.375	-359.03	1803.2	224.21	-333.68	1461.5	236.58	-398.04	1092.6	74.284	-419.26	1113.3	398.94	-341.18	1013.7	105.81	-345.65	1022.7	378.92	-422.4	927.16	47.83	-418.95	950.88	435	-526.94	1076.5	181.31	-532.2	1085.4	273.21	-543.5	1049.2	227.71	-386	523.11	111.93	-420.62	532.16	243.95	-316.6	549.43	407.03	-299.41	557.34	273.05	-491.61	118.09	158.23	-492.15	123.06	230.61	-586.98	231.75	385.8	-552.18	231.25	299.71	-421.94	753.76	78.667	-358.94	756.57	95.859	-351.72	684.08	111.89	-416.58	679.38	95.054	-399.32	731.56	412.6	-338.21	757.25	427.8	-315.26	685.42	422.53	-375.64	660.95	404.04	-418.56	442.5	118.92	-375.09	446.89	145.81	-396.9	392.16	154.01	-454.44	391.87	142.88	-455.19	460.52	400.36	-399.63	420.64	414.06	-447.24	361.24	404.7	-501.4	403.28	388.15	-584.98	58.595	166.89	-590.84	88.905	197.87	-583.57	59.477	233.22	-679.47	216.88	347.99	-659.16	236.48	315.25	-658.72	204.5	284.91	-376.26	53.346	250.18	-407.14	37.504	144.44	-315.68	54.905	217.66	-496.9	86.958	332.57	-544.72	107.14	429.28	-462.34	65.138	393.02	-446.17	1578.6	220.48
